<svg width="21" height="22" viewBox="0 0 21 22" fill="none" xmlns="http://www.w3.org/2000/svg">
<path d="M3.35305 18.7957C3.14386 18.4204 3.28332 17.9473 3.66068 17.7433L11.7863 13.3013C12.6149 12.8526 13.1112 12.0245 13.1112 11.0864C13.1112 10.1482 12.6189 9.32423 11.7904 8.87554L3.65248 4.36821C3.27512 4.16018 3.13976 3.68702 3.34895 3.31175C3.55814 2.93648 4.03395 2.80187 4.41131 3.0099L12.5369 7.50907C13.8659 8.23106 14.6657 9.5649 14.6657 11.0782C14.6657 12.5915 13.8659 13.9294 12.5328 14.6514L4.41131 19.0935C4.03395 19.3015 3.55814 19.1628 3.35305 18.7875V18.7957Z" fill="#0064FF"/>
<path d="M6.88913 20.7287C6.62665 20.7287 6.37232 20.5982 6.22466 20.3575C5.99904 19.9904 6.11391 19.5132 6.47899 19.2888L14.0344 14.6714C15.2978 13.9005 16.0525 12.5585 16.0525 11.0819C16.0525 9.60526 15.2978 8.26734 14.0344 7.49233L6.47899 2.87897C6.10978 2.65463 5.99904 2.17738 6.22466 1.81027C6.45023 1.44316 6.93018 1.33303 7.29933 1.55737L14.8548 6.17481C16.5858 7.23127 17.6153 9.06683 17.6153 11.0859C17.6153 13.1051 16.5816 14.9406 14.8548 15.9971L7.29933 20.6145C7.17216 20.692 7.03271 20.7287 6.89326 20.7287H6.88913Z" fill="#0064FF"/>
<path d="M20.0598 11.0862C20.0598 16.7193 15.4699 21.2837 9.80537 21.2837C9.65771 21.2837 9.51418 21.2837 9.36652 21.2756L15.0515 17.8043C17.4142 16.3604 18.8252 13.8518 18.8252 11.0903C18.8252 8.32879 17.4101 5.82428 15.0392 4.38439L9.31726 0.900909C9.48134 0.892751 9.64542 0.888672 9.8095 0.888672C15.474 0.888672 20.0639 5.45309 20.0639 11.0862H20.0598Z" fill="#0064FF"/>
<path d="M0.666626 5.23658V16.9352C0.666626 17.5307 1.31061 17.9019 1.83153 17.6082L12.1803 11.7589C12.7054 11.4612 12.7054 10.7065 12.1803 10.4088L1.83153 4.56355C1.31061 4.26986 0.666626 4.64513 0.666626 5.23658Z" fill="#0064FF"/>
</svg>
