<svg width="683" height="411" viewBox="0 0 683 411" fill="none" xmlns="http://www.w3.org/2000/svg">
<g style="mix-blend-mode:multiply">
<g opacity="0.4">
<path d="M396.13 186.336C365.489 168.648 315.978 168.648 285.541 186.336C285.393 186.428 285.264 186.502 285.116 186.594C265.526 198.14 258.848 214.297 265.046 229.016C268.348 236.855 275.303 244.288 285.891 250.393C316.531 268.081 366.061 268.081 396.499 250.393C426.936 232.705 426.77 204.024 396.13 186.336Z" fill="#C0DBFF"/>
<path d="M410.408 178.054C371.891 155.829 309.448 155.829 271.189 178.054C270.156 178.645 269.16 179.253 268.201 179.862L270.156 180.637C271.023 180.083 271.927 179.548 272.868 178.995C310.204 157.304 371.19 157.304 408.766 178.995C446.361 200.704 446.564 236.007 409.227 257.716C371.872 279.425 310.905 279.425 273.311 257.716C259.512 249.748 250.75 239.954 247.042 229.68L244.681 229.773C248.444 240.378 257.446 250.486 271.65 258.693C310.167 280.919 372.629 280.919 410.887 258.693C449.146 236.468 448.943 200.298 410.426 178.054H410.408Z" fill="#C0DBFF"/>
<path d="M424.316 169.976C378.088 143.287 303.12 143.287 257.188 169.976C255.306 171.064 253.498 172.189 251.764 173.351L256.966 175.417C258.461 174.439 260.01 173.48 261.615 172.54C305.113 147.271 376.115 147.271 419.889 172.54C463.663 197.808 463.903 238.939 420.424 264.208C376.926 289.477 305.924 289.477 262.131 264.208C245.492 254.599 235.162 242.721 231.104 230.289L224.813 230.51C229.001 243.809 239.958 256.517 257.723 266.772C303.951 293.461 378.937 293.461 424.87 266.772C470.784 240.083 470.544 196.665 424.316 169.976Z" fill="#C0DBFF"/>
<path d="M452.761 153.431C390.743 117.63 290.171 117.63 228.558 153.431C166.946 189.232 167.259 247.479 229.278 283.28C255.38 298.349 288.308 307.073 322.268 309.452L321.936 301.669C291.481 299.308 262.058 291.358 238.63 277.82C181.814 245.026 181.519 191.648 237.966 158.854C294.414 126.06 386.556 126.06 443.372 158.854C480.173 180.102 493.271 209.982 482.59 237.298L495.189 239.935C507.493 209.871 493.326 176.837 452.743 153.413L452.761 153.431Z" fill="#C0DBFF"/>
<path d="M219.077 289.219C151.395 250.154 151.026 186.576 218.265 147.51C285.504 108.445 395.281 108.445 462.944 147.51C530.625 186.576 530.976 250.154 463.737 289.219C396.498 328.284 286.74 328.284 219.058 289.219H219.077ZM465.158 146.219C431.787 126.945 387.478 116.339 340.438 116.339C293.399 116.339 249.219 126.945 216.051 146.219C182.884 165.494 164.714 191.113 164.861 218.355C165.009 245.598 183.474 271.217 216.863 290.491C250.233 309.766 294.543 320.371 341.582 320.371C388.622 320.371 432.802 309.766 465.969 290.491C499.137 271.217 517.307 245.598 517.159 218.355C517.012 191.113 498.546 165.494 465.158 146.219Z" fill="#C0DBFF"/>
<path d="M565.342 172.54L559.956 173.462C583.937 212.564 575.912 256.794 535.772 292.318L540.273 294.18C565.638 271.863 579.159 245.727 579.012 218.355C578.919 202.512 574.234 187.055 565.342 172.521V172.54ZM500.317 116.266C456.34 93.1732 399.929 80.5388 340.254 80.5388C276.686 80.5388 217.01 94.8701 172.203 120.895C127.396 146.939 102.843 181.54 103.046 218.355C103.249 255.171 128.189 289.791 173.291 315.816C218.394 341.859 278.235 356.191 341.803 356.191C379.859 356.191 416.532 351.045 449.441 341.343L446.692 338.521C359.605 364.048 250.159 355.729 177.147 313.584C86.2037 261.091 85.7241 175.657 176.077 123.145C263.681 72.2388 405.021 70.6895 496.443 118.497L500.299 116.247L500.317 116.266Z" fill="#C0DBFF"/>
<path d="M533.503 106.508C507.364 91.4206 476.89 79.7269 442.966 71.7589C410.205 64.0675 375.598 60.1758 340.125 60.1758C304.652 60.1758 270.101 64.0675 237.413 71.7589C203.581 79.7084 173.236 91.4022 147.263 106.508C121.271 121.614 101.201 139.21 87.569 158.835C74.398 177.777 67.794 197.808 67.9047 218.355C68.0154 238.902 74.8592 258.933 88.2331 277.875C89.1001 279.111 89.9856 280.328 90.9079 281.546L96.1837 280.531C53.0919 223.778 71.3542 155.109 151.137 108.74C255.14 48.2976 424.944 48.2976 529.629 108.74C634.315 169.182 634.869 267.509 530.865 327.952C466.154 365.56 375.949 379.762 291.831 370.577L290.503 373.731C307.345 375.594 324.519 376.534 341.896 376.516C377.369 376.516 411.92 372.624 444.608 364.933C478.439 356.965 508.766 345.289 534.758 330.183C560.731 315.096 580.82 297.482 594.452 277.857C607.604 258.896 614.227 238.884 614.116 218.337C614.005 197.79 607.162 177.759 593.788 158.816C579.934 139.192 559.661 121.596 533.503 106.49V106.508Z" fill="#C0DBFF"/>
<path d="M551.065 96.3269C522.527 79.856 489.286 67.0925 452.263 58.4236C431.621 53.5727 410.297 50.1236 388.492 48.0579L388.88 49.0907C447.836 54.7347 504.449 70.7076 549.939 96.9724C665.915 163.926 666.523 272.84 551.323 339.793C436.104 406.746 248.02 406.746 132.063 339.793C16.1057 272.858 15.497 163.926 130.698 96.9724C144.514 88.9491 159.401 81.8665 175.062 75.7798L174.693 74.7838C158.571 81.0365 143.5 88.2298 129.572 96.3269C101.22 112.798 79.2862 132.017 64.4181 153.431C50.1033 174.107 42.8906 195.964 43.0013 218.374C43.1304 240.783 50.6014 262.64 65.1928 283.316C80.3008 304.73 102.437 323.931 130.974 340.42C159.512 356.891 192.753 369.655 229.776 378.342C265.526 386.734 303.286 390.976 341.988 390.976C380.689 390.976 418.395 386.716 454.053 378.342C490.965 369.655 524.077 356.91 552.43 340.42C580.782 323.949 602.697 304.73 617.565 283.316C631.917 262.64 639.148 240.783 639.019 218.374C638.89 195.964 631.438 174.107 616.828 153.431C601.72 132.017 579.583 112.816 551.028 96.3269H551.065Z" fill="#C0DBFF"/>
</g>
<path opacity="0.1" d="M555.529 243.513C561.407 243.513 566.173 241.812 566.173 239.713C566.173 237.615 561.407 235.914 555.529 235.914C549.651 235.914 544.885 237.615 544.885 239.713C544.885 241.812 549.651 243.513 555.529 243.513Z" fill="black"/>
<path d="M550.547 237.389C550.824 237.389 551.119 237.353 551.433 237.279C552.429 237.021 553.37 235.231 553.905 234.365C554.255 233.811 554.643 233.59 555.085 233.535C554.956 233.221 554.845 232.852 554.79 232.409C554.55 230.676 555.473 225.567 555.546 223.796C555.62 222.025 554.901 220.605 554.809 219.738C554.698 218.871 555.417 217.064 555.546 215.607L551.691 215.312C551.691 215.312 551.802 218.927 551.857 219.867C551.931 220.808 552.632 228.278 552.669 230.805C552.706 233.313 552.281 235.213 550.75 237.15C550.676 237.223 550.621 237.316 550.566 237.389H550.547Z" fill="#EAEAE9"/>
<path d="M549.348 238.92C549.551 239.584 551.156 239.621 552.134 239.197C553.056 238.81 553.278 237.371 553.702 237.076C553.702 237.076 553.757 237.039 553.776 237.039C554.237 236.873 554.145 239.179 554.145 239.179C554.514 239.271 554.735 238.939 554.735 238.939C554.735 238.035 555.049 236.357 555.528 235.527C555.879 234.9 555.418 234.438 555.067 233.535C554.624 233.59 554.237 233.811 553.886 234.365C553.351 235.213 552.411 237.002 551.415 237.279C551.119 237.353 550.824 237.39 550.529 237.39C549.478 238.736 549.33 238.92 549.33 238.92H549.348Z" fill="#0064FF"/>
<path d="M560.491 231.174C560.97 232.188 560.896 233.405 560.767 234.678C560.767 234.807 560.73 234.918 560.712 235.028C560.435 236.061 559.531 236.615 559.402 236.928C559.255 237.279 559.974 237.574 561.302 237.371C562.63 237.168 563.35 234.641 563.35 234.641L563.848 237.205H564.346C564.346 237.205 564.42 233.922 564.346 232.944C564.272 231.967 563.35 231.616 562.778 231.321C562.206 231.026 561.339 227.06 561.007 225.972C560.675 224.884 560.527 222.062 560.269 220.697C559.992 219.332 558.424 217.728 558.424 217.728L558.664 215.293L555.528 215.072C555.528 215.072 555.713 217.764 555.934 218.668C556.156 219.572 560.011 230.141 560.491 231.155V231.174Z" fill="#EAEAE9"/>
<path d="M561.302 237.389C562.501 237.205 563.22 235.12 563.331 234.715C563.331 234.678 563.349 234.659 563.349 234.659L563.847 237.223H564.345C564.345 237.223 564.419 233.94 564.345 232.962C564.345 232.796 564.29 232.649 564.235 232.52C563.958 231.874 563.239 231.598 562.777 231.339C562.777 231.339 562.427 232.612 562.095 233.442C561.671 234.475 561.265 234.586 560.693 235.028C560.416 236.061 559.512 236.614 559.383 236.928C559.236 237.278 559.955 237.574 561.283 237.371L561.302 237.389Z" fill="#0064FF"/>
<path d="M559.697 187.11C558.59 187.553 558.369 188.567 558.664 190.116C558.959 191.666 560.38 197.402 560.38 197.402C560.38 197.402 558.258 203.599 558 203.821C557.742 204.042 556.838 205.112 556.838 205.665C556.838 206.218 557.41 207.989 557.945 208.303C558.48 208.616 559.513 208.469 559.291 208.008C559.07 207.546 558.683 207.491 558.609 207.196C558.535 206.901 559.347 205.739 559.439 204.522C559.439 204.522 562.852 199.191 563.018 197.623C563.184 196.056 561.708 189.655 561.413 188.456C561.118 187.258 560.306 186.87 559.716 187.11H559.697Z" fill="#EAEAE9"/>
<path d="M556.561 182.333C556.285 183.218 554.883 184.122 553.905 184.288C553.905 184.288 551.673 179.843 553.112 177.869C554.551 175.914 557.115 180.415 556.543 182.314L556.561 182.333Z" fill="#EAEAE9"/>
<path d="M557.668 185.505C555.842 185.598 552.835 187.313 551.765 189.139C550.695 190.965 550.437 194.396 550.658 194.967C551.12 196.111 551.784 197.07 551.839 197.9C551.894 198.73 552.263 199.505 551.673 202.087C551.083 204.669 550.197 212.028 551.655 217.968C551.655 217.968 554.551 218.484 558.609 215.902C558.609 215.902 559.273 209.538 559.9 207.712C560.509 205.886 560.38 202.806 559.9 200.888C559.421 198.988 559.66 195.705 559.974 194.488C560.288 193.27 562.575 188.309 560.306 186.169C560.306 186.169 559.402 185.45 557.668 185.524V185.505Z" fill="#0064FF"/>
<path d="M552.632 189.139C551.525 189.581 551.304 190.596 551.599 192.145C551.894 193.695 553.315 199.431 553.315 199.431C553.315 199.431 551.193 205.628 550.935 205.849C550.677 206.071 549.773 207.141 549.773 207.694C549.773 208.247 550.345 210.018 550.88 210.331C551.415 210.645 552.448 210.497 552.226 210.036C552.005 209.575 551.618 209.52 551.544 209.225C551.488 208.93 552.282 207.768 552.374 206.55C552.374 206.55 555.787 201.22 555.953 199.652C556.119 198.084 554.643 191.684 554.348 190.485C554.053 189.286 553.241 188.899 552.651 189.139H552.632Z" fill="#EAEAE9"/>
<path d="M552.65 178.128C552.521 178.663 553.536 179.493 553.886 180.857C554.237 182.222 555.288 188.641 556.949 190.375C558.609 192.109 558.996 192.662 558.996 192.57C558.996 192.477 561.487 189.582 561.542 184.915C561.597 180.249 559.531 175.49 557.871 175.195C556.211 174.9 553.149 176.154 552.65 178.128Z" fill="#13305A"/>
<path d="M553.702 237.076C553.702 237.076 553.758 237.039 553.776 237.039C554.237 236.873 554.145 239.178 554.145 239.178C554.514 239.271 554.735 238.939 554.735 238.939C554.735 238.035 555.049 236.356 555.528 235.526C555.528 235.526 554.292 235.951 553.702 237.076Z" fill="#13305A"/>
<path d="M563.35 234.66L563.848 237.205H564.346C564.346 237.205 564.42 233.922 564.346 232.944C564.346 232.778 564.291 232.631 564.236 232.502L563.35 234.641V234.66Z" fill="#13305A"/>
<path opacity="0.1" d="M387.053 133.363C392.799 133.363 397.457 131.704 397.457 129.656C397.457 127.609 392.799 125.949 387.053 125.949C381.307 125.949 376.649 127.609 376.649 129.656C376.649 131.704 381.307 133.363 387.053 133.363Z" fill="black"/>
<path d="M389.581 80.7231C390.208 82.4569 391.887 88.0087 392.145 88.9125C393.787 88.9494 394.857 88.23 395.503 87.566C395.115 85.0576 393.787 80.5571 393.215 79.3214C392.459 77.6983 390.282 76.776 389.839 76.9789C388.548 77.5507 388.917 78.8418 389.6 80.7231H389.581Z" fill="#0064FF"/>
<path d="M387.958 95.9027C388.382 97.0278 390.043 97.5258 390.043 97.5258C390.043 97.5258 395.097 90.1849 395.558 89.1705C395.669 88.9307 395.632 88.3405 395.503 87.5474C394.876 88.2114 393.806 88.9307 392.145 88.8938C392.164 88.9676 392.182 89.0229 392.182 89.0229C391.924 90.9042 387.958 95.9027 387.958 95.9027Z" fill="#EAEAE9"/>
<path d="M384.047 68.4021C382.184 68.7525 381.76 68.9923 381.686 70.3388C381.612 71.6852 381.76 74.3965 382.866 75.4848C382.866 75.4848 385.265 75.4294 385.91 72.9948C386.556 70.5601 384.047 68.4205 384.047 68.4205V68.4021Z" fill="#EAEAE9"/>
<path d="M387.81 73.198L388.327 77.2742C388.327 77.2742 386.648 78.4362 385.025 77.8644C385.025 77.8644 384.766 75.5404 383.567 74.858L387.81 73.198Z" fill="#EAEAE9"/>
<path d="M384.767 127.148C385.468 127.35 387.331 127.037 388.345 126.889C389.341 126.742 392.533 127.277 393.123 126.723C393.658 126.225 393.584 125.082 393.123 123.68C393.068 123.532 393.012 123.366 392.939 123.2C392.293 121.577 392.164 117.28 391.961 114.402C391.758 111.525 390.67 109.533 390.67 109.533C390.67 109.533 391.574 102.469 391.906 99.813C392.238 97.157 390.946 95.2756 390.946 95.2756L383.604 96.5852C383.604 96.5852 386.372 109.662 386.519 110.861C386.667 112.06 389.766 122.979 389.673 123.735C389.673 123.809 389.618 123.883 389.544 123.957C388.843 124.731 385.541 125.856 385.541 125.856C384.711 126.299 384.084 126.908 384.785 127.111L384.767 127.148Z" fill="#0064FF"/>
<path d="M384.767 127.147C385.468 127.35 387.331 127.037 388.346 126.889C389.342 126.742 392.533 127.277 393.124 126.723C393.659 126.225 393.585 125.082 393.124 123.68C392.496 124.03 391.316 124.436 389.545 123.993C388.844 124.768 385.542 125.893 385.542 125.893C384.712 126.336 384.085 126.945 384.786 127.147H384.767Z" fill="#13305A"/>
<path d="M378.697 130.338C380.782 130.154 385.117 129.933 385.412 129.158C385.707 128.383 385.412 126.889 385.412 126.889C385.412 126.889 385.412 126.889 385.412 126.871C385.449 126.465 386.021 120.766 386.297 119.29C386.593 117.741 386.408 113.886 385.283 112.816C385.283 112.816 389.267 101.75 388.788 99.1305C388.308 96.5114 388.308 96.8618 388.308 96.8618L380.339 97.2307C380.339 97.2307 380.468 109.828 380.763 112.982C381.058 116.136 381.667 126.52 381.667 126.52C381.667 126.52 376.668 129.103 376.428 129.416C376.188 129.748 376.613 130.523 378.679 130.338H378.697Z" fill="#0064FF"/>
<path d="M378.697 130.339C380.782 130.154 385.117 129.933 385.412 129.158C385.707 128.383 385.412 126.889 385.412 126.889C385.412 126.889 385.412 126.889 385.412 126.871C384.692 127.055 383.364 127.203 381.667 126.521C381.667 126.521 376.668 129.103 376.428 129.416C376.188 129.748 376.613 130.523 378.679 130.339H378.697Z" fill="#13305A"/>
<path d="M387.22 76.7574C385.578 76.9603 381.723 78.8416 381.262 79.4503C380.8 80.0589 379.398 83.6925 380.155 88.7647C380.911 93.8369 380.339 97.2122 380.339 97.2122C380.339 97.2122 387.46 98.6509 390.909 95.2756C390.909 95.2756 390.411 91.2916 390.909 89.484C391.407 87.658 392.883 85.4631 392.606 81.3685C392.33 77.2738 390.909 76.2963 387.183 76.7389L387.22 76.7574Z" fill="#0064FF"/>
<path d="M378.771 89.1521C380.136 89.4657 381.372 90.1665 382.091 90.6461C382.756 88.5803 383.659 84.2274 383.955 82.881C384.268 81.387 383.327 79.8561 382.663 79.6901C381.612 79.4319 381.058 79.4503 380.45 80.7968C379.933 81.9219 379.066 87.3077 378.789 89.1521H378.771Z" fill="#0064FF"/>
<path d="M373.865 101.768C374.344 101.824 375.267 101.584 375.137 101.307C375.008 101.03 374.399 100.92 374.399 100.92C374.399 100.92 374.16 99.9238 374.363 99.7762C374.566 99.6287 375.875 99.0015 376.041 97.9871C376.041 97.9871 381.225 92.878 381.889 91.1996C381.944 91.0336 382.018 90.8491 382.092 90.6278C381.372 90.1482 380.136 89.4473 378.771 89.1338C378.716 89.5211 378.679 89.7609 378.679 89.7609L374.547 96.6407C374.547 96.6407 372.868 97.6182 372.61 98.8171C372.352 100.016 373.385 101.694 373.865 101.75V101.768Z" fill="#EAEAE9"/>
<path d="M383.143 72.3678C383.143 72.3678 382.571 71.1505 382.313 70.1361C382.054 69.1216 381.261 69.6565 381.28 69.1032C381.298 68.5314 384.379 66.2258 386.998 67.4801C386.998 67.4801 388.105 67.7383 388.382 68.6236C388.64 69.5089 389.47 73.6405 387.773 74.2123C386.076 74.784 384.766 74.2492 384.397 73.6405C384.028 73.0318 383.161 72.3494 383.161 72.3494L383.143 72.3678Z" fill="#13305A"/>
<path d="M383.143 72.3675C383.143 72.3675 383.162 71.0211 383.936 71.2239C384.711 71.4084 384.453 73.0684 383.457 73.4926L383.143 72.3859V72.3675Z" fill="#EAEAE9"/>
<path opacity="0.1" d="M126.012 317.973C131.758 317.973 136.416 316.313 136.416 314.266C136.416 312.218 131.758 310.559 126.012 310.559C120.266 310.559 115.608 312.218 115.608 314.266C115.608 316.313 120.266 317.973 126.012 317.973Z" fill="black"/>
<path d="M138.058 277.746C137.062 278.483 136.914 279.535 136.914 279.535C136.914 279.535 132.137 278.188 130.661 276.547C129.204 274.887 125.606 267.527 125.053 266.347C124.481 265.167 125.311 264.115 125.311 264.115C125.865 263.894 127.082 263.47 127.654 264.595C128.226 265.701 131.583 273.098 132.118 273.743C132.653 274.389 138.077 277.764 138.077 277.764L138.058 277.746Z" fill="#0064FF"/>
<path d="M142.208 279.83C142.171 280.106 140.862 281.342 140.234 281.194C139.589 281.047 137.394 280.18 136.914 279.553C136.914 279.553 137.062 278.502 138.058 277.764C138.058 277.764 140.806 276.528 141.046 276.897C141.304 277.284 139.829 278.17 139.829 278.17C139.829 278.17 142.227 279.534 142.19 279.83H142.208Z" fill="#EAEAE9"/>
<path d="M128.466 309.784C128.023 310.042 127.47 310.319 126.898 310.466C126.123 310.669 125.588 310.337 125.293 310.06C125.293 310.023 125.293 309.987 125.293 309.95C125.422 308.271 123.946 303.457 123.725 302.185C123.485 300.912 124.74 299.547 124.223 297.223C123.725 294.899 123.725 288.646 123.725 288.646C123.725 288.646 122.526 295.95 122.36 297.537C122.212 299.123 119.408 311.351 119.796 312.679C119.851 312.882 119.943 313.085 120.072 313.27C118.191 314.081 116.955 313.509 116.346 313.03C116.365 312.919 116.383 312.809 116.402 312.679C116.641 311.13 116.051 303.789 115.904 302C115.756 300.211 117.379 297.887 117.638 296.836C117.896 295.784 117.767 290.823 117.379 288.517C116.992 286.23 117.988 284.275 117.988 284.275L127.912 282.338C128.429 283.998 128.3 296.891 128.281 298.182C128.281 299.455 128.281 308.087 128.281 309.138C128.281 309.396 128.337 309.599 128.447 309.802L128.466 309.784Z" fill="#0064FF"/>
<path d="M123.614 317.788C120.976 318.526 119.26 316.885 118.596 316.313C117.932 315.723 117.231 316.46 116.346 315.723C115.516 315.04 116.088 314.339 116.346 313.011C116.955 313.491 118.172 314.063 120.072 313.251C120.699 314.229 121.972 314.8 121.972 314.8C123.208 315.925 126.252 317.051 123.595 317.788H123.614Z" fill="#0064FF"/>
<path d="M133.502 313.712C131.786 314.173 129.923 312.901 129.074 312.827C128.226 312.753 126.584 313.214 125.773 312.716C124.979 312.218 125.145 311.665 125.274 310.079C125.57 310.355 126.123 310.687 126.879 310.484C127.451 310.337 128.005 310.06 128.447 309.802C128.798 310.392 129.72 310.743 131.048 311.388C132.801 312.237 135.199 313.251 133.502 313.712Z" fill="#0064FF"/>
<path d="M118.172 283.076L118.006 284.275C118.006 284.275 121.105 285.584 125.127 284.127C125.127 284.127 126.75 283.519 127.931 282.338L127.82 281.176L118.191 283.076H118.172Z" fill="#13305A"/>
<path d="M125.312 283.002C125.312 283.002 125.33 284.035 125.625 284.017C125.902 284.017 126.806 283.463 126.843 283.334C126.88 283.205 126.953 282.191 126.787 282.191C126.621 282.191 125.441 282.836 125.312 282.984V283.002Z" fill="#EAEAE9"/>
<path d="M135.605 282.024C135.476 282.264 133.336 281.379 133.336 281.379C133.336 281.379 132.137 282.688 131.344 282.467C130.55 282.246 129.296 281.231 129.296 281.231C129.259 280.125 130.2 279.479 130.2 279.479C130.2 279.479 132.672 279.258 133.594 280.014C134.535 280.789 135.715 281.766 135.586 282.006L135.605 282.024Z" fill="#EAEAE9"/>
<path d="M121.585 263.211C122.397 262.861 126.4 263.525 126.566 263.765C126.732 264.004 128.244 265.535 128.3 267.527C128.355 269.519 128.17 270.497 128.115 273.19C128.06 275.883 128.41 280.531 128.226 280.992C128.041 281.453 124.352 284.478 120.773 283.888C117.195 283.297 117.619 283.353 117.656 282.67C117.693 281.988 117.951 275.698 117.527 274.573C117.102 273.448 115.534 268.984 116.328 267.656C117.121 266.347 118.633 264.466 121.585 263.193V263.211Z" fill="#0064FF"/>
<path d="M130.2 279.479C130.2 279.479 129.24 280.125 129.296 281.232C129.296 281.232 123.467 279.682 121.991 278.539C120.515 277.414 117.268 272.913 116.125 270.903C114.981 268.874 116.235 267.933 116.235 267.933C117.158 267.398 118.172 267.656 118.781 268.597C119.39 269.538 122.932 274.868 123.743 275.68C124.555 276.491 130.237 279.479 130.237 279.479H130.2Z" fill="#0064FF"/>
<path d="M123.209 256.848C124.869 257.365 125.533 257.604 125.828 258.969C126.123 260.334 125.625 263.765 124.518 263.765C123.411 263.765 121.641 263.211 121.29 260.537C120.94 257.863 122.194 256.535 123.209 256.848Z" fill="#EAEAE9"/>
<path d="M120.515 261.625L120.46 263.691C120.46 263.691 121.18 265.13 122.784 265.019C122.784 265.019 123.633 264.834 123.744 263.875L123.891 261.68L124.113 258.822L120.146 259.264L120.515 261.607V261.625Z" fill="#EAEAE9"/>
<path d="M121.622 260.279C121.622 260.279 122.71 259.836 122.858 258.563C122.858 258.563 126.215 258.213 126.27 257.254C126.326 256.295 122.968 254.598 121.493 254.985C120.017 255.373 118.726 256.959 119.427 259.836C119.427 259.836 119.648 260.851 120.534 261.625C120.534 261.625 121.142 261.349 121.622 260.279Z" fill="#0064FF"/>
<path d="M120.773 259.67C120.866 259.301 121.437 259.596 121.991 260.371L121.825 261.016C121.825 261.016 120.497 260.85 120.773 259.67Z" fill="#EAEAE9"/>
<path opacity="0.1" d="M527.509 140.262C533.255 140.262 537.913 138.602 537.913 136.554C537.913 134.507 533.255 132.847 527.509 132.847C521.763 132.847 517.105 134.507 517.105 136.554C517.105 138.602 521.763 140.262 527.509 140.262Z" fill="black"/>
<path d="M521.938 135.189C523.598 135.374 523.746 134.267 525.037 134.489C526.328 134.728 527.066 134.581 527.435 134.027C527.62 133.769 527.472 132.902 527.269 131.925C527.048 130.873 526.734 129.693 526.66 129.029C526.513 127.775 526.882 125.1 526.845 123.809C526.789 122.518 525.959 120.249 525.959 120.249L526.291 113.886C526.291 113.886 527.121 119.659 527.343 120.969C527.564 122.278 529.612 132.128 529.925 133.548C529.944 133.677 529.962 133.788 529.981 133.917C530.018 135.189 528.726 136.259 527.767 137.606C526.697 139.081 527.988 139.598 527.988 139.598C530.35 140.003 530.903 138.399 531.254 137.79C531.604 137.2 532.84 136.72 533.541 136.075C534.242 135.429 533.818 134.507 533.541 133.124C533.541 133.05 533.523 132.995 533.504 132.902C533.246 131.261 532.988 126.447 533.135 124.861C533.264 123.201 531.844 120.249 531.844 120.249C531.844 120.249 532.121 119.825 532.379 114.347C532.637 108.851 531.272 103.871 531.272 103.871C524.225 106.195 521.532 102.93 521.532 102.93C521.532 102.93 521.311 102.838 520.573 106.213C519.835 109.589 522.786 120.655 522.786 120.655C523.155 122.832 524.133 131.925 524.133 131.925C524.133 131.999 524.096 132.072 524.059 132.146C523.524 133.161 520.222 134.083 519.835 134.415C519.411 134.784 520.296 134.968 521.956 135.153L521.938 135.189Z" fill="#13305A"/>
<path d="M521.938 135.189C523.598 135.374 523.746 134.267 525.037 134.489C526.328 134.728 527.066 134.581 527.435 134.027C527.619 133.769 527.472 132.902 527.269 131.925C526.586 132.165 525.461 132.404 524.041 132.165C523.506 133.179 520.204 134.101 519.816 134.433C519.392 134.802 520.278 134.987 521.938 135.171V135.189Z" fill="#0064FF"/>
<path d="M527.988 139.616C530.349 140.022 530.902 138.417 531.253 137.809C531.603 137.218 532.839 136.739 533.54 136.093C534.241 135.448 533.817 134.526 533.54 133.142C533.54 133.068 533.522 133.013 533.503 132.921C533.135 133.53 532.507 134.194 531.419 134.249C530.829 134.267 530.367 134.138 529.98 133.935C530.017 135.208 528.726 136.278 527.766 137.624C526.697 139.1 527.988 139.616 527.988 139.616Z" fill="#0064FF"/>
<path d="M516.883 96.936C517.935 97.5446 518.82 97.8029 519.447 97.932C520.554 95.7371 522.62 91.5686 522.952 90.0746C523.413 88.0089 523.174 86.6255 521.071 86.3489C521.071 86.3489 519.964 87.2527 519.374 88.7835C518.912 90.0009 517.455 94.944 516.883 96.9544V96.936Z" fill="#0064FF"/>
<path d="M507.198 106.232C507.328 106.508 508.951 107.984 510.537 107.099C512.124 106.232 517.676 101.713 518.746 99.2967C518.746 99.2967 519.023 98.7618 519.447 97.9318C518.838 97.8211 517.935 97.5445 516.883 96.9358C516.735 97.4707 516.643 97.7842 516.643 97.7842C516.643 97.7842 515.131 98.7802 514.374 99.8131C513.618 100.846 512.714 102.856 511.718 103.096C510.722 103.336 508.822 102.617 508.582 103.096C508.342 103.576 509.929 104.092 509.929 104.092C509.929 104.092 507.051 105.955 507.18 106.232H507.198Z" fill="#EAEAE9"/>
<path d="M527.085 84.9469C525.572 84.4489 521.366 85.9244 521.089 86.3487C520.813 86.7729 520.001 88.9493 520.296 91.5869C520.591 94.2244 521.255 96.2349 521.182 98.688C521.108 101.123 520.85 103.52 520.85 103.52C520.85 103.52 522.196 105.937 526.439 105.697C529.962 105.494 531.272 103.908 531.272 103.908C531.272 103.908 531.124 97.194 531.825 93.708C532.508 90.2404 533.154 89.2998 532.047 88.3038C530.94 87.3078 529.501 85.7216 527.103 84.9469H527.085Z" fill="#0064FF"/>
<path d="M529.132 92.8595C529.482 94.7408 531.659 98.1899 531.899 99.2043C533.19 98.7432 534.537 98.6141 535.588 98.6141C535.367 94.9068 533.024 88.8386 532.415 88.7833C531.216 88.6726 528.763 90.9044 529.132 92.8595Z" fill="#0064FF"/>
<path d="M529.5 107.043C529.5 107.043 529.648 108.297 531.29 108.629C531.29 108.629 535.717 102.506 535.588 98.8353C535.588 98.7616 535.588 98.6878 535.588 98.614C534.555 98.614 533.19 98.7616 531.899 99.2042C531.899 99.2411 531.917 99.278 531.917 99.3149L529.5 107.025V107.043Z" fill="#EAEAE9"/>
<path d="M528.837 77.5693C528.412 76.7024 526.678 76.7208 525.738 77.016C524.797 77.3111 523.782 77.3848 523.1 77.2373C522.417 77.0897 521.753 77.9935 522.196 78.9526C522.639 79.9117 523.155 80.4282 524.004 80.2253C524.852 80.0224 525.461 84.0064 526.605 84.0064C527.748 84.0064 529.427 83.4162 529.427 81.2766C529.427 79.1371 529.04 77.9935 528.837 77.5693Z" fill="#13305A"/>
<path d="M525.701 78.676C523.985 78.676 523.192 79.1741 523.008 80.4652C522.842 81.7563 522.897 85.4083 524.059 86.3305C524.059 86.3305 527.232 86.7547 527.785 83.7483C528.339 80.7418 528.136 78.8236 525.516 78.6392L525.682 78.6945L525.701 78.676Z" fill="#EAEAE9"/>
<path d="M527.509 82.4202C527.509 82.4202 527.066 82.457 526.992 81.5717C526.918 80.6864 526.549 80.2253 525.369 80.3913C524.207 80.5573 523.395 80.4651 522.805 79.8748C522.214 79.2846 522.657 78.0857 524.428 78.0119C526.217 77.9382 527.97 78.2148 528.394 79.8011C528.818 81.3873 528.8 82.0697 528.228 82.4017C527.656 82.7337 527.49 82.4017 527.49 82.4017L527.509 82.4202Z" fill="#13305A"/>
<path d="M527.896 83.2317L528.339 85.4819C528.339 85.4819 528.025 87.437 526.015 87.437C526.015 87.437 524.926 87.2895 524.926 86.5148L524.594 84.3937L527.896 83.2317Z" fill="#EAEAE9"/>
<path d="M527.508 82.4202C527.508 82.4202 528.357 81.1475 528.855 81.7377C529.353 82.328 528.32 83.3424 527.582 83.2502L527.508 82.4202Z" fill="#EAEAE9"/>
<path opacity="0.1" d="M267.388 85.242C273.134 85.242 277.792 83.5822 277.792 81.5347C277.792 79.4872 273.134 77.8274 267.388 77.8274C261.642 77.8274 256.984 79.4872 256.984 81.5347C256.984 83.5822 261.642 85.242 267.388 85.242Z" fill="black"/>
<path d="M273.477 59.8623C273.477 59.8623 273.274 62.5921 273.108 63.0532C272.942 63.5143 266.836 74.1936 266.596 74.9867C266.467 75.4109 266.522 77.0525 266.467 78.4912C266.412 79.7638 266.264 80.8889 265.821 80.852C264.844 80.7598 264.53 77.4029 264.106 76.37C263.663 75.3372 264.124 74.1014 264.825 73.6218C265.526 73.1423 268.791 63.625 270.119 62.5552L270.378 60.1205L273.477 59.8623Z" fill="#EAEAE9"/>
<path d="M266.485 78.5095C266.43 79.7821 266.282 80.9072 265.84 80.8703C264.862 80.7781 264.548 77.4212 264.124 76.3884C263.681 75.3555 264.143 74.1197 264.844 73.6401C264.844 73.6401 264.936 78.159 266.504 78.5095H266.485Z" fill="#13305A"/>
<path d="M269.75 78.4358C269.75 79.3949 269.566 80.4832 268.662 80.7598C267.739 81.0365 267.075 80.1696 266.688 79.3027C266.614 78.1776 266.725 77.2554 266.725 77.2554C266.725 77.2554 266.134 71.9618 266.005 69.933C265.876 67.9041 266.171 65.0083 266.171 63.9754C266.171 62.9425 265.839 60.8767 265.839 60.8767L269.4 60.4341C269.4 60.4341 269.603 63.293 269.566 64.3812C269.529 65.4694 269.252 75.6323 269.234 76.7021C269.234 76.9972 269.473 77.6427 269.769 78.4174L269.75 78.4358Z" fill="#EAEAE9"/>
<path d="M269.215 83.2867C267.278 83.3236 266.78 81.0733 266.669 79.3027C267.075 80.1511 267.721 81.0365 268.643 80.7598C269.547 80.4831 269.75 79.3949 269.732 78.4358C270.469 80.4093 271.484 83.2313 269.197 83.2867H269.215Z" fill="#13305A"/>
<path d="M265.175 45.6048C265.175 45.6048 263.718 48.1133 264.197 51.3226C264.696 54.5319 265.821 61.5408 265.821 61.5408C265.821 61.5408 269.861 62.4814 273.642 60.2312C273.642 60.2312 275.376 50.6217 274.934 47.9657C274.491 45.2913 273.993 44.7195 273.993 44.7195L265.157 45.6233L265.175 45.6048Z" fill="#0064FF"/>
<path d="M271.189 24.8918C271.189 24.8918 272.222 23.0842 271.41 21.5349C270.599 19.9856 268.588 19.8933 267.61 20.0593C266.633 20.2253 264.843 21.2582 264.77 24.1725C264.677 27.0867 264.567 32.0851 263.866 33.5975L269.031 31.4949L271.189 24.9102V24.8918Z" fill="#13305A"/>
<path d="M272.185 29.1155C273.403 29.1155 273.421 36.9912 274.639 38.0057C275.856 39.0386 279.583 42.6537 279.583 42.6537C279.583 42.6537 282.331 42.3032 282.516 42.9119C282.7 43.5206 280.892 43.4283 280.892 43.4283C280.892 43.4283 283.309 44.1661 283.29 44.6641C283.254 45.1806 281.981 46.4163 280.579 45.531C279.177 44.6457 278.347 43.6497 278.347 43.6497C278.347 43.6497 272.573 40.4957 272.075 39.0017C271.558 37.5077 270.47 32.3986 270.322 31.1628C270.156 29.927 270.839 29.1155 272.204 29.1155H272.185Z" fill="#EAEAE9"/>
<path d="M267.075 29.429C266.485 29.6688 263.847 31.6424 263.404 32.1773C262.961 32.7121 262.832 34.9992 264.456 36.8437C266.079 38.7066 266.245 43.0595 265.157 45.6232C265.157 45.6232 267.149 47.0803 270.285 46.3794C273.402 45.6786 273.993 44.7194 273.993 44.7194C273.993 44.7194 272.904 42.0819 273.255 39.7395C273.605 37.397 274.952 36.2719 274.933 34.9992C274.897 33.7266 273.384 29.5213 272.443 29.0233C271.502 28.5253 270.137 28.1933 267.057 29.429H267.075Z" fill="#0064FF"/>
<path d="M265.987 30.0931C265.987 30.0931 266.061 33.7266 270.175 33.948C270.175 33.948 271.872 32.7306 270.525 30.5726C269.16 28.4146 267.943 29.1155 267.943 29.1155L266.006 30.0746L265.987 30.0931Z" fill="#EAEAE9"/>
<path d="M264.585 35.8108C263.238 37.1204 262.076 38.5037 261.596 39.1308C260.526 38.7435 259.954 38.1164 259.659 37.5999C260.858 35.7002 262.758 32.9519 263.109 32.5462C263.588 32.0113 264.787 31.7899 265.341 32.3802C265.913 32.9888 266.3 34.1508 264.585 35.8108Z" fill="#0064FF"/>
<path d="M270.304 28.3777C269.916 28.7465 269.64 29.1339 269.437 29.5028C269.437 29.5396 269.4 29.5581 269.382 29.595C269.326 29.6872 269.289 29.7979 269.234 29.8901C268.883 30.6648 268.865 31.2919 268.865 31.2919C266.559 31.6423 265.987 30.093 265.987 30.093C266.799 28.6912 267.168 26.9021 267.168 26.9021L270.285 28.3961L270.304 28.3777Z" fill="#EAEAE9"/>
<path d="M262.131 50.7692C262.113 50.8983 261.929 50.9352 261.855 50.8245C261.652 50.5109 261.338 49.9945 261.191 49.3674C261.191 49.3674 260.656 51.4147 260.711 52.466C260.711 52.6874 260.49 52.8349 260.287 52.7427C259.862 52.5214 259.291 52.0972 259.254 51.2672C259.162 49.9023 259.586 47.5414 259.586 47.5414C259.586 47.5414 258.202 40.3665 258.811 39.0938C258.959 38.7803 259.291 38.227 259.678 37.5999C259.973 38.1163 260.545 38.7434 261.615 39.1307C261.486 39.2967 261.412 39.4074 261.394 39.4627C261.32 39.6841 261.191 47.0803 261.191 47.0803C261.191 47.0803 262.427 49.0354 262.131 50.7692Z" fill="#EAEAE9"/>
<path opacity="0.2" d="M269.51 29.5398C269.51 29.5398 269.51 29.5767 269.473 29.6136C269.436 29.6136 269.399 29.6136 269.363 29.6136C269.307 29.7058 269.27 29.8165 269.215 29.9087C268.865 29.7427 267.795 29.1156 267.573 28.0273C267.629 28.1011 268.422 29.1709 269.418 29.5213C269.436 29.5213 269.473 29.5398 269.51 29.5582V29.5398Z" fill="black"/>
<path d="M270.23 29.4291C269.99 29.5767 269.75 29.632 269.492 29.6136C269.455 29.6136 269.418 29.6136 269.381 29.6136C268.717 29.5213 268.053 28.9311 267.592 28.0273C267.426 27.6953 267.278 27.308 267.167 26.9022C266.983 26.2198 266.909 25.4636 266.983 24.652C267.278 21.498 269.436 22.1436 269.436 22.1436C271.724 22.1436 271.558 23.1396 271.668 24.0802C271.779 25.0209 271.724 28.4885 270.211 29.4291H270.23Z" fill="#EAEAE9"/>
<path d="M266.264 25.4451C266.264 25.4451 267.463 25.5742 268.643 24.1724C269.842 22.7706 271.521 23.0473 271.521 23.0473C271.521 23.0473 271.595 21.8484 270.488 21.5349C269.381 21.2213 267.075 21.2766 266.356 22.9366C265.636 24.5966 266.264 25.4451 266.264 25.4451Z" fill="#13305A"/>
<path d="M267.426 26.0168C267.426 26.0168 266.688 24.4122 266.005 24.818C265.323 25.2237 265.599 26.81 267.426 26.9391V26.0353V26.0168Z" fill="#EAEAE9"/>
<path opacity="0.1" d="M244.644 290.418C250.39 290.418 255.048 288.758 255.048 286.71C255.048 284.663 250.39 283.003 244.644 283.003C238.898 283.003 234.24 284.663 234.24 286.71C234.24 288.758 238.898 290.418 244.644 290.418Z" fill="black"/>
<path d="M253.794 255.705C253.794 256.96 251.876 257.347 251.396 256.886C250.916 256.425 249.699 254.304 249.699 254.304C249.699 254.304 243.593 251.15 243.076 249.619C242.91 249.102 243.095 248.051 243.501 246.778C244.46 247.221 245.622 247.682 246.249 247.903C246.194 247.996 246.157 248.033 246.157 248.033C246.157 248.033 250.031 252.496 251.193 252.865C252.355 253.234 253.776 254.433 253.776 255.687L253.794 255.705Z" fill="#EAEAE9"/>
<path opacity="0.3" d="M250.289 241.688C249.551 242.905 246.803 247.11 246.268 247.903C245.622 247.664 244.478 247.221 243.519 246.778C244.312 244.251 246.157 241.005 247.024 239.161C247.596 237.943 249.404 238.829 249.404 238.829C250.566 239.806 251.101 240.341 250.307 241.669L250.289 241.688Z" fill="#EAEAE9"/>
<path d="M251.156 270.166C250.861 272.102 249.754 279.443 249.865 281.029C249.865 281.103 249.865 281.177 249.902 281.232C248.075 281.767 246.729 281.601 246.065 281.435C246.083 281.343 246.102 281.251 246.12 281.177C246.47 279.628 245.806 274.592 245.917 272.656C246.028 270.719 246.655 269.871 246.655 269.871L246.747 261.81C246.747 261.81 245.069 268.137 244.515 270.166C243.962 272.213 241.73 283.722 241.324 284.977C241.324 285.032 241.305 285.087 241.287 285.142C239.313 285.604 238.096 285.142 237.413 284.681C237.413 284.644 237.432 284.626 237.432 284.626C237.432 284.626 237.93 279.185 237.874 277.746C237.819 276.308 237.579 274.555 237.874 273.006C238.169 271.457 239.516 268.672 239.516 268.672C239.516 268.672 239.867 260.556 239.811 258.749C239.756 256.959 241.619 254.525 241.619 254.525L251.543 254.137C253.093 257.642 251.451 268.211 251.138 270.166H251.156Z" fill="#13305A"/>
<path d="M245.806 235.14C247.374 234.937 249.828 236.339 250.639 236.874C251.451 237.409 252.078 238.571 252.041 239.493C252.004 240.415 251.266 246.336 251.174 248.807C251.082 251.297 251.562 254.138 251.562 254.138C251.562 254.138 247.466 256.904 241.268 254.378C241.268 254.378 240.567 253.732 240.918 252.09C241.268 250.467 241.158 243.68 240.272 241.632C239.387 239.585 240.014 237.98 241.065 237.187C242.117 236.394 244.718 235.269 245.806 235.14Z" fill="#0064FF"/>
<path d="M243.685 290.399C241.988 290.695 238.096 288.297 237.247 287.762C236.472 287.264 237.266 285.087 237.432 284.682C238.114 285.143 239.332 285.604 241.305 285.143C241.213 286.397 244.183 288.205 244.183 288.205C245.032 289.348 245.382 290.104 243.685 290.399Z" fill="#13305A"/>
<path d="M252.023 285.069C250.345 285.124 250.105 284.128 247.615 283.962C245.272 283.815 245.696 282.837 246.065 281.435C246.729 281.601 248.057 281.767 249.902 281.232C250.308 282.708 253.96 283.593 254.255 284.165C254.551 284.774 253.702 285.014 252.023 285.069Z" fill="#13305A"/>
<path d="M242.615 241.688C241.877 242.905 239.129 247.11 238.594 247.904C237.948 247.664 236.804 247.221 235.845 246.778C236.638 244.252 238.225 240.858 239.35 239.161C241.047 236.597 242.117 237.814 242.117 237.814C243.279 238.792 243.427 240.341 242.615 241.688Z" fill="#0064FF"/>
<path d="M246.138 255.705C246.138 256.96 244.22 257.347 243.74 256.886C243.261 256.425 242.043 254.304 242.043 254.304C242.043 254.304 235.937 251.15 235.421 249.619C235.255 249.102 235.439 248.051 235.845 246.778C236.804 247.221 237.966 247.682 238.594 247.903C238.538 247.996 238.501 248.033 238.501 248.033C238.501 248.033 242.375 252.496 243.537 252.865C244.699 253.234 246.12 254.433 246.12 255.687L246.138 255.705Z" fill="#EAEAE9"/>
<path d="M246.784 227.393C248.795 227.006 250.123 228.334 250.123 229.293C250.123 230.252 249.717 233.996 248.463 235.287C248.463 235.287 243.869 234.476 245.105 229.293C245.105 229.293 245.511 227.651 246.802 227.393H246.784Z" fill="#EAEAE9"/>
<path d="M244.164 232.447V235.638C244.164 235.638 244.994 236.542 246.341 236.449C247.688 236.357 247.761 235.73 247.761 235.73L248.112 232.853L245.622 230.271C245.622 230.271 244.201 230.141 244.164 230.271C244.127 230.4 244.164 232.447 244.164 232.447Z" fill="#EAEAE9"/>
<path d="M246.488 228.813C246.488 228.813 247.282 229.901 251.432 229.293C251.432 229.293 249.846 226.231 247.079 226.102C244.312 225.991 244.053 227.522 244.053 227.522C244.053 227.522 241.452 229.274 244.146 232.428C244.146 232.428 245.751 231.082 246.101 230.363C246.452 229.643 246.47 228.795 246.47 228.795L246.488 228.813Z" fill="#0064FF"/>
<path d="M245.511 231.138C245.511 231.138 243.906 229.644 243.795 230.879C243.703 231.912 245.511 232.041 245.511 232.041V231.138Z" fill="#EAEAE9"/>
<path d="M114.556 163.188C113.948 163.059 113.007 164.756 113.081 167.578C113.173 170.4 115.423 173.646 116.457 173.756C117.49 173.867 123.614 171.654 126.971 170.99C127.082 170.971 128.927 170.492 128.908 169.164C128.89 167.836 126.639 168.869 126.639 168.869C126.639 168.869 126.842 167.762 126.602 167.799C126.344 167.836 125.662 169.477 125.662 169.477C125.662 169.477 118.559 171.543 117.748 170.713C116.936 169.902 116.549 164.922 115.848 164.221C115.147 163.52 114.575 163.188 114.575 163.188H114.556Z" fill="#EAEAE9"/>
<path d="M121.696 153.338C121.696 153.338 122.765 154.888 121.308 159.849C121.308 159.849 118.596 159.941 118.135 156.935C117.674 153.91 119.832 153.191 121.677 153.338H121.696Z" fill="#EAEAE9"/>
<path d="M117.693 161.196C119.408 161.306 123.171 163.686 123.54 164.442C123.928 165.198 124.407 167.098 123.54 169.68C122.673 172.262 122.876 175.785 124.149 177.353C124.149 177.353 119.187 180.359 115.128 176.818C115.128 176.818 116.899 173.572 114.28 168.813C111.66 164.055 115.756 161.067 117.693 161.196Z" fill="#0064FF"/>
<path d="M118.633 211.162C117.176 211.199 113.818 212.342 113.081 211.328C112.343 210.332 112.767 209.059 113.081 208.192C113.081 208.192 113.818 208.266 114.575 209.262C115.165 210.055 116.807 209.52 117.397 208.782C118.135 209.299 118.984 209.649 119.574 209.575C120.699 209.428 120.072 211.125 118.633 211.162Z" fill="#13305A"/>
<path d="M126.215 207.842C125.569 207.934 124.628 208.008 123.503 207.897C123.319 206.255 123.042 204.319 122.655 203.433C121.935 201.7 120.994 197.457 121.861 195.023C121.861 195.023 121.013 189.895 118.781 186.446C118.781 186.446 118.061 193.178 117.785 194.801C117.563 196.129 115.977 202.954 115.755 205.923C115.054 205.923 114.095 205.868 113.191 205.72C113.283 203.784 113.357 201.275 113.265 200.519C113.099 199.21 113.025 195.668 114.095 193.898C114.095 193.898 114.87 188.272 114.28 186.096C113.689 183.919 113.191 180.599 115.128 176.8L124.149 177.334C124.149 177.334 125.735 182.038 125.661 188.069C125.588 194.1 126.252 195.65 126.307 196.517C126.362 197.254 126.067 204.854 126.215 207.823V207.842Z" fill="#0064FF"/>
<path d="M130.458 214.445C128.798 214.684 126.897 213.965 126.178 213.504C125.459 213.061 124.629 214.094 123.909 213.154C123.19 212.213 123.669 210.903 123.762 210.7C123.762 210.7 124.721 211.752 127.211 210.7C127.857 211.512 128.927 212.324 130.771 213.098C130.771 213.098 132.118 214.168 130.458 214.408V214.445Z" fill="#13305A"/>
<path d="M127.211 210.719C124.72 211.77 123.761 210.719 123.761 210.719C123.761 210.719 123.669 209.428 123.503 207.915C124.628 208.026 125.569 207.952 126.215 207.86C126.233 208.321 126.27 208.671 126.307 208.856C126.454 209.465 126.713 210.092 127.211 210.719Z" fill="#EAEAE9"/>
<path d="M117.397 208.782C116.807 209.52 115.165 210.037 114.575 209.262C113.818 208.266 113.081 208.192 113.081 208.192C113.081 208.192 113.136 207.104 113.21 205.739C114.114 205.868 115.073 205.923 115.774 205.942C115.718 206.587 115.737 207.049 115.848 207.233C116.124 207.749 116.733 208.321 117.416 208.782H117.397Z" fill="#EAEAE9"/>
<path d="M118.449 151.088C120.072 151.015 121.696 152.398 121.806 152.896C121.917 153.394 122.046 154.371 121.4 155.294C120.773 156.216 120.57 157.193 120.57 158.208C120.57 159.222 120.902 160.974 119.371 162.837C117.84 164.7 116.549 166.286 116.549 166.286C116.549 166.286 113.893 164.128 114.317 161.214C114.741 158.3 114.944 158.319 114.649 156.898C114.335 155.46 113.819 151.328 118.431 151.107L118.449 151.088Z" fill="#13305A"/>
<path d="M123.042 164.46C123.798 164.866 124.407 166.508 123.798 168.795C123.19 171.082 122.212 174.162 122.396 175.158C122.581 176.172 124.13 180.249 124.628 182.222C125.127 184.196 124.647 186.667 123.614 186.446C122.581 186.206 122.378 185.026 122.636 184.048C122.894 183.071 122.858 182.425 122.378 181.466C121.917 180.507 119.297 176.689 119.611 174.402C119.925 172.133 120.662 167.965 121.327 166.12C121.991 164.276 122.765 164.294 123.061 164.46H123.042Z" fill="#EAEAE9"/>
<path opacity="0.1" d="M330.699 383.894C336.445 383.894 341.103 382.234 341.103 380.187C341.103 378.139 336.445 376.479 330.699 376.479C324.953 376.479 320.295 378.139 320.295 380.187C320.295 382.234 324.953 383.894 330.699 383.894Z" fill="black"/>
<path d="M338.723 374.413C338.077 375.336 336.897 375.889 335.993 376.203C335.384 374.155 334.277 373.417 333.263 371.425C332.267 369.489 332.857 367.017 332.894 366.888C332.875 366.943 332.543 367.331 328.282 361.097C323.8 354.53 325.109 349.108 325.109 349.108L335.956 351.358C335.956 351.358 336.805 363.697 337.247 365.191C337.672 366.667 337.579 374.081 338.742 374.45L338.723 374.413Z" fill="#13305A"/>
<path d="M341.232 376.922C340.144 377.18 339.59 379.32 337.561 379.541C335.532 379.762 336.602 378.231 335.993 376.184C336.879 375.889 338.078 375.336 338.723 374.395C338.742 374.395 338.76 374.395 338.779 374.395C339.996 374.524 343.058 372.016 344.22 373.436C345.383 374.856 342.32 376.645 341.232 376.903V376.922Z" fill="#13305A"/>
<path d="M335.938 351.321C335.938 351.321 332.691 364.011 332.101 366.224C331.51 368.437 326.198 376.516 324.076 378.785L321.088 377.272C321.088 377.272 323.357 371.075 324.814 369.618C326.271 368.161 327.046 368.161 327.526 366.943C328.005 365.726 326.29 355.877 327.526 352.999L328.245 351.247L335.938 351.339V351.321Z" fill="#13305A"/>
<path d="M326.253 383.654C324.74 383.064 319.464 381.275 319.63 379.504C319.796 377.752 321.088 377.291 321.088 377.291L324.076 378.803C324.076 378.803 325.865 381.404 327.526 382.363C329.167 383.322 327.747 384.245 326.234 383.654H326.253Z" fill="#13305A"/>
<path d="M327.323 335.072C326.806 336.086 324.537 341.73 324.076 342.8C323.615 343.888 323.209 351.579 323.246 352.354C323.246 352.409 323.246 352.446 323.264 352.502C322.084 352.317 320.792 352.87 320.792 352.87C320.792 352.87 320.792 342.8 321.032 341.583C321.272 340.365 323.892 333.615 324.334 332.36C324.795 331.106 325.773 331.106 326.64 331.493C327.895 332.047 327.821 334.057 327.304 335.072H327.323Z" fill="#0064FF"/>
<path d="M323.91 355.25C323.707 355.803 322.268 357.131 321.253 356.117C320.239 355.102 320.792 352.87 320.792 352.87C320.792 352.87 322.065 352.317 323.264 352.502C323.264 352.52 323.264 352.538 323.264 352.557C323.504 353.221 324.629 353.7 324.685 354.235C324.758 354.826 323.891 355.25 323.891 355.25H323.91Z" fill="#EAEAE9"/>
<path d="M323.283 352.557C323.283 352.557 323.283 352.52 323.283 352.501C324.463 352.667 323.283 352.557 323.283 352.557Z" fill="#EAEAE9"/>
<path d="M333.263 321.995C335.033 322.087 335.937 321.995 335.919 325.02C335.919 326.661 335.605 329.612 334.849 329.76C334.093 329.907 331.897 330.387 331.178 329.446C330.459 328.505 330.496 324.946 330.846 323.784C331.196 322.622 333.281 321.995 333.281 321.995H333.263Z" fill="#EAEAE9"/>
<path d="M329.592 328.118L329.167 331.235C329.167 331.235 331.234 332.397 333.244 331.475V328.118H329.573H329.592Z" fill="#EAEAE9"/>
<path d="M330.182 329.059C331.252 329.372 333.373 328.173 334.111 325.628C334.849 323.083 335.9 323.691 336.066 323.249C336.232 322.806 336.509 321.386 335.365 321.33C334.222 321.294 333.392 321.257 333.133 321.017C332.857 320.796 331.565 320.095 330.606 320.464C329.647 320.832 328.3 321.921 328.448 323.267C328.448 323.267 327.636 323.894 327.858 325.019C328.061 326.144 328.817 326.587 329.02 327.362C329.223 328.136 329.094 328.727 330.219 329.059H330.182Z" fill="#13305A"/>
<path d="M333.502 327.528C333.502 327.528 332.008 326.532 332.598 325.444C333.189 324.355 334.166 326.606 334.166 326.606L333.502 327.528Z" fill="#EAEAE9"/>
<path d="M330.994 330.516C333.503 330.866 337.45 333.412 337.579 334.149C337.709 334.887 337.45 344.202 336.934 346.323C336.417 348.444 335.956 351.303 335.956 351.303C335.956 351.303 328.522 353.332 325.109 349.052C325.109 349.052 325.884 344.497 325.552 342.689C325.202 340.863 323.375 333.024 325.109 331.29C326.843 329.557 331.012 330.516 331.012 330.516H330.994Z" fill="#0064FF"/>
<path d="M346.286 356.172C344.681 356.725 345.419 355.434 345.419 354.881C345.419 354.327 344.404 353.239 344.368 352.262C344.368 352.262 338.686 348.001 337.616 346.156C336.528 344.312 334.554 338.779 334.166 336.86C333.761 334.942 335.531 333.965 335.531 333.965C337.007 333.411 337.598 333.43 338.409 335.846C339.221 338.262 339.498 342.449 340.826 344.404C341.988 346.101 344.866 348.757 345.954 350.233C346.12 350.454 346.249 350.638 346.323 350.804C346.876 352.003 347.928 355.655 346.323 356.209L346.286 356.172Z" fill="#0064FF"/>
<path d="M346.286 356.172C344.681 356.725 345.419 355.434 345.419 354.881C345.419 354.328 344.405 353.239 344.368 352.262C344.368 352.262 346.139 352.041 345.917 350.215C346.083 350.436 346.212 350.62 346.286 350.786C346.84 351.985 347.891 355.637 346.286 356.191V356.172Z" fill="#EAEAE9"/>
<path opacity="0.1" d="M203.268 84.6332L189.82 107.836L215.221 127.461L172.923 127.148L144.201 146.274L135.918 123.772L95.4829 116.487L129.942 102.34L129.259 77.8457L163.257 92.4906L203.268 84.6332Z" fill="black"/>
<path d="M126.363 89.4657L126.307 103.281L125.662 79.7824L125.699 65.9675L126.363 89.4657Z" fill="#FFCB04"/>
<path d="M196.682 72.4785L196.645 86.2934L183.732 108.556L183.788 94.7225L196.682 72.4785Z" fill="#E9BB1F"/>
<path d="M132.081 110.013L132.044 123.828L93.269 116.856L93.3059 103.022L132.081 110.013Z" fill="#DFB425"/>
<path d="M208.156 113.573L208.119 127.387L167.536 127.092L167.573 113.259L208.156 113.573Z" fill="#E9BB1F"/>
<path d="M144.256 132.441L144.219 146.274L132.044 123.828L132.081 110.013L144.256 132.441Z" fill="#E9BB1F"/>
<path d="M167.572 113.259L167.536 127.074L144.219 146.275L144.256 132.441L167.572 113.259Z" fill="#DFB425"/>
<path d="M196.682 72.4784L183.787 94.7224L208.156 113.554L167.573 113.259L144.256 132.441L132.081 110.013L93.3057 103.022L126.362 89.4657L125.698 65.9675L158.294 80.0222L196.682 72.4784Z" fill="#FFCB04"/>
<path opacity="0.1" d="M297.845 137.661L284.397 160.864L309.798 180.489L267.499 180.175L238.796 199.302L230.495 176.781L190.06 169.514L224.518 155.367L223.854 130.873L257.833 145.518L297.845 137.661Z" fill="black"/>
<path d="M220.94 142.475L220.903 156.308L220.239 132.81L220.295 118.977L220.94 142.475Z" fill="#FFCB04"/>
<path d="M291.259 125.488L291.222 139.321L278.328 161.565L278.365 147.75L291.259 125.488Z" fill="#E9BB1F"/>
<path d="M226.677 163.022L226.64 176.855L187.846 169.883L187.883 156.05L226.677 163.022Z" fill="#DFB425"/>
<path d="M302.733 166.581L302.696 180.415L262.113 180.119L262.168 166.286L302.733 166.581Z" fill="#E9BB1F"/>
<path d="M238.834 185.469L238.797 199.302L226.64 176.855L226.677 163.022L238.834 185.469Z" fill="#E9BB1F"/>
<path d="M262.169 166.286L262.114 180.101L238.797 199.283L238.852 185.468L262.169 166.286Z" fill="#DFB425"/>
<path d="M291.259 125.487L278.365 147.75L302.733 166.582L262.169 166.286L238.834 185.469L226.677 163.022L187.883 156.05L220.94 142.475L220.294 118.977L252.89 133.031L291.259 125.487Z" fill="#FFCB04"/>
<path opacity="0.1" d="M392.44 190.67L378.974 213.873L404.394 233.516L362.077 233.203L333.373 252.33L325.091 229.809L284.655 222.542L319.114 208.395L318.431 183.901L352.411 198.546L392.44 190.67Z" fill="black"/>
<path d="M315.517 195.503L315.48 209.336L314.834 185.838L314.871 172.004L315.517 195.503Z" fill="#FFCB04"/>
<path d="M385.855 178.515L385.818 192.349L372.905 214.593L372.942 200.778L385.855 178.515Z" fill="#E9BB1F"/>
<path d="M321.254 216.05L321.217 229.883L282.423 222.893L282.46 209.078L321.254 216.05Z" fill="#DFB425"/>
<path d="M397.31 219.609L397.273 233.443L356.708 233.129L356.745 219.314L397.31 219.609Z" fill="#E9BB1F"/>
<path d="M333.429 238.497L333.392 252.312L321.217 229.883L321.254 216.05L333.429 238.497Z" fill="#E9BB1F"/>
<path d="M356.746 219.296L356.709 233.129L333.393 252.311L333.429 238.496L356.746 219.296Z" fill="#DFB425"/>
<path d="M385.855 178.515L372.942 200.778L397.311 219.609L356.746 219.296L333.429 238.496L321.254 216.05L282.46 209.078L315.517 195.503L314.872 172.004L347.467 186.059L385.855 178.515Z" fill="#FFCB04"/>
<path opacity="0.1" d="M487.016 243.698L473.55 266.901L498.97 286.544L456.671 286.231L427.95 305.339L419.667 282.837L379.231 275.551L413.69 261.405L413.008 236.91L446.987 251.574L487.016 243.698Z" fill="black"/>
<path d="M410.093 248.53L410.056 262.345L409.411 238.866L409.448 225.032L410.093 248.53Z" fill="#FFCB04"/>
<path d="M480.431 231.543L480.394 245.358L467.481 267.62L467.518 253.787L480.431 231.543Z" fill="#E9BB1F"/>
<path d="M415.83 269.077L415.793 282.892L377.018 275.92L377.055 262.105L415.83 269.077Z" fill="#DFB425"/>
<path d="M491.905 272.637L491.849 286.452L451.285 286.157L451.322 272.342L491.905 272.637Z" fill="#E9BB1F"/>
<path d="M428.005 291.506L427.968 305.339L415.793 282.892L415.83 269.078L428.005 291.506Z" fill="#E9BB1F"/>
<path d="M451.322 272.324L451.285 286.157L427.968 305.339L428.005 291.506L451.322 272.324Z" fill="#DFB425"/>
<path d="M480.431 231.543L467.518 253.787L491.905 272.619L451.322 272.324L428.005 291.506L415.83 269.077L377.055 262.106L410.093 248.53L409.447 225.032L442.043 239.087L480.431 231.543Z" fill="#FFCB04"/>
<path opacity="0.1" d="M581.594 296.726L568.146 319.929L593.548 339.553L551.249 339.24L522.527 358.367L514.245 335.865L473.809 328.579L508.268 314.432L507.585 289.938L541.583 304.583L581.594 296.726Z" fill="black"/>
<path d="M504.689 301.558L504.634 315.373L503.988 291.875L504.025 278.06L504.689 301.558Z" fill="#FFCB04"/>
<path d="M575.009 284.552L574.972 298.386L562.059 320.648L562.114 306.815L575.009 284.552Z" fill="#E9BB1F"/>
<path d="M510.408 322.105L510.371 335.92L471.596 328.948L471.633 315.115L510.408 322.105Z" fill="#DFB425"/>
<path d="M586.482 325.665L586.445 339.48L545.862 339.185L545.899 325.351L586.482 325.665Z" fill="#E9BB1F"/>
<path d="M522.583 344.534L522.546 358.367L510.371 335.92L510.408 322.105L522.583 344.534Z" fill="#E9BB1F"/>
<path d="M545.9 325.351L545.863 339.166L522.546 358.367L522.583 344.534L545.9 325.351Z" fill="#DFB425"/>
<path d="M575.009 284.552L562.115 306.815L586.483 325.646L545.9 325.351L522.583 344.533L510.408 322.105L471.633 315.115L504.69 301.558L504.025 278.06L536.621 292.114L575.009 284.552Z" fill="#FFCB04"/>
</g>
</svg>
